<svg version="1" xmlns="http://www.w3.org/2000/svg" width="682.667" height="682.667" viewBox="0 0 512.000000 512.000000"><path d="M.5 48c-.2.3.8 3.2 2.1 6.5s6.6 17.7 11.9 32c5.3 14.3 12 32.5 15 40.5 5.7 15.5 17.4 47.3 23.2 63 1.9 5.2 3.9 10.5 4.4 11.8.5 1.3 3.4 9.2 6.5 17.5 3 8.4 6.2 17 7.1 19.2 1.9 5 25.3 68.5 37.4 101.5 5 13.5 9.4 25.4 9.9 26.5.5 1.1 5.7 15 11.5 31 18.1 49.2 23.5 63.7 24.4 65.4.8 1.5 3.7 1.6 25.2 1.6h24.2l7.4-19.5c4.1-10.7 10.8-28.5 15-39.5 4.2-11 8.6-22.7 9.8-26 1.2-3.3 6.4-16.8 11.4-30 5.1-13.2 9.4-24.5 9.5-25 .2-.6.8-2.1 1.3-3.5.6-1.4 4.4-11.5 8.6-22.5 4.1-11 13-34.4 19.7-52 13-34 18.5-48.5 29.9-79 4-10.5 7.8-20.4 8.5-22 .7-1.7 3-7.6 5.1-13.3 2.1-5.6 3.9-10.1 4.2-9.9.3.4 12.6 35.5 17.3 49.7 1 3 6 17.4 11 32 5.1 14.6 9.8 28.3 10.5 30.5.7 2.2 5.5 15.9 10.5 30.5 5.1 14.6 9.8 28.3 10.5 30.5.7 2.2 5 14.6 9.5 27.5 9.8 28.1 17.5 50.5 22.5 65.5 2 6 4.1 11.9 4.5 13 .9 2 7.5 21.2 16.9 49l4.8 14h29.9c22.5-.1 29.8-.4 29.7-1.3-.3-1.2-22.8-62.4-34.9-94.7-3.4-9.4-19.2-51.9-34.9-94.5s-28.9-78.2-29.2-79c-.3-.8-.7-1.7-.8-2-.1-.3-.4-1.2-.8-2-.3-.8-6.9-18.8-14.7-40-18.8-51.2-26.8-72.8-28.5-77-.8-1.9-2.8-7.6-4.6-12.5-1.7-5-3.7-10.1-4.4-11.5l-1.3-2.5h-48.4l-14 36.5c-7.6 20.1-14.7 38.7-15.7 41.5-2.7 7.3-21.7 57.6-25.6 67.5-1.8 4.7-6 15.9-9.4 25-3.5 9.1-6.6 17.4-7.1 18.5-.5 1.1-9.1 23.6-19 50-10 26.4-22.1 58.3-27 71-4.8 12.6-9.5 25.1-10.5 27.8-1 2.6-1.9 4.6-2.1 4.4-.2-.2-2.6-6.9-5.3-14.8-2.7-7.9-8.6-25-13.1-37.9-4.5-12.9-10.8-31.2-14-40.5-3.2-9.4-10.1-29.4-15.3-44.5-5.2-15.1-10.5-30.4-11.7-34-1.2-3.6-2.5-7.4-3-8.5-.5-1.1-2.4-6.7-4.4-12.5-1.9-5.8-7.6-22.4-12.6-37-5.1-14.6-11.6-33.5-14.5-42-2.9-8.5-6.7-19.8-8.6-25-1.8-5.2-6.1-17.6-9.5-27.5l-6.1-18H30.5c-16.3 0-29.8.2-30 .5z"/></svg>