<?xml version="1.0" encoding="utf-8"?>
<!-- Generator: Adobe Illustrator 16.0.4, SVG Export Plug-In . SVG Version: 6.00 Build 0)  -->
<!DOCTYPE svg PUBLIC "-//W3C//DTD SVG 1.1//EN" "http://www.w3.org/Graphics/SVG/1.1/DTD/svg11.dtd">
<svg version="1.1" id="search" xmlns="http://www.w3.org/2000/svg" xmlns:xlink="http://www.w3.org/1999/xlink" x="0px" y="0px"
	 width="2048px" height="2048px" viewBox="0 0 2048 2048" enable-background="new 0 0 2048 2048" xml:space="preserve" style="cursor: pointer;">
<g>
	<path fill="#FFFFFF" d="M1493.054,1386.799c51.153-61.423,92.742-129.684,124.05-203.685
		c42.556-100.601,64.128-207.423,64.128-317.499c0-110.075-21.572-216.898-64.128-317.496
		c-41.084-97.121-99.879-184.347-174.762-259.229c-74.883-74.883-162.108-133.677-259.228-174.762
		C1082.514,71.573,975.691,50,865.616,50c-110.075,0-216.898,21.573-317.496,64.128c-97.121,41.085-184.347,99.878-259.229,174.762
		c-74.883,74.882-133.677,162.108-174.762,259.229C71.573,648.718,50,755.541,50,865.616c0,110.075,21.573,216.898,64.128,317.499
		c41.085,97.119,99.878,184.345,174.762,259.228c74.882,74.883,162.108,133.678,259.229,174.762
		c100.598,42.556,207.421,64.128,317.496,64.128c110.075,0,216.898-21.572,317.499-64.128
		c74.013-31.308,142.273-72.896,203.696-124.05L1891.745,1998L1998,1891.756L1493.054,1386.799z M1132.938,1498.485
		c-84.64,35.793-174.57,53.954-267.323,53.954c-92.752,0-182.693-18.161-267.32-53.954
		c-81.784-34.593-155.24-84.123-218.338-147.211c-63.098-63.098-112.619-136.564-147.211-218.336
		c-35.793-84.64-53.954-174.57-53.954-267.323c0-92.752,18.16-182.693,53.954-267.32c34.592-81.784,84.113-155.24,147.211-218.338
		c63.098-63.098,136.554-112.619,218.338-147.211c84.627-35.793,174.568-53.954,267.32-53.954
		c92.753,0,182.683,18.16,267.323,53.954c81.771,34.592,155.238,84.113,218.336,147.211
		c63.088,63.098,112.618,136.554,147.211,218.338c35.793,84.627,53.954,174.568,53.954,267.32
		c0,92.753-18.161,182.683-53.954,267.323c-34.593,81.771-84.123,155.238-147.211,218.336
		C1288.177,1414.362,1214.71,1463.893,1132.938,1498.485z"/>
</g>
</svg>
